<svg width="0" height="0" class="hidden"><symbol xmlns="http://www.w3.org/2000/svg" id="close-icon" fill="none" viewBox="0 0 32 32"><path stroke="#fff" stroke-linecap="round" stroke-linejoin="round" stroke-width="3" d="M24 8 8 24M8 8l16 16"/></symbol><symbol xmlns="http://www.w3.org/2000/svg" id="facebook-icon" fill="none" viewBox="0 0 28 28"><path fill="#121417" d="M17.08 4.06h.84v3.15h-1.05c-.42 0-.84 0-1.05.21-.21.21-.21.42-.21.91v1.12h2.31v2.66h-2.31v11.55h-3.57V12.04h-1.89V9.38h1.89v-.91c0-1.54.21-2.66.63-3.15.63-.91 1.89-1.33 3.78-1.33.21.07.42.07.63.07Z" opacity=".8"/></symbol><symbol xmlns="http://www.w3.org/2000/svg" id="hamburger-menu-icon" fill="none" viewBox="0 0 32 33"><path stroke="#121417" stroke-linecap="round" stroke-width="3" d="M6.37 8.879H30.5M6.37 22.818H30.5M14.022 15.848H30.5"/></symbol><symbol xmlns="http://www.w3.org/2000/svg" id="instagram-icon" fill="none" viewBox="0 0 28 28"><g fill="#121417" opacity=".8"><path d="M25.128 9.411a8.096 8.096 0 0 0-.521-2.751 5.73 5.73 0 0 0-3.276-3.27 8.23 8.23 0 0 0-2.719-.522C17.416 2.815 17.036 2.8 14 2.8c-3.038 0-3.427 0-4.615.068-.93.02-1.849.195-2.718.522a5.726 5.726 0 0 0-3.275 3.27 8.127 8.127 0 0 0-.521 2.713c-.054 1.196-.07 1.575-.07 4.607 0 3.033 0 3.42.07 4.607.018.93.194 1.846.52 2.716a5.729 5.729 0 0 0 3.277 3.269 8.2 8.2 0 0 0 2.718.559c1.198.053 1.577.069 4.615.069 3.038 0 3.427 0 4.615-.07a8.211 8.211 0 0 0 2.719-.52 5.736 5.736 0 0 0 3.275-3.27c.327-.869.503-1.785.521-2.715.054-1.195.07-1.574.07-4.608-.002-3.032-.002-3.417-.072-4.606ZM13.99 19.715a5.745 5.745 0 0 1-5.75-5.741 5.744 5.744 0 0 1 5.75-5.741c3.175 0 5.75 2.57 5.75 5.74a5.746 5.746 0 0 1-5.75 5.742Zm5.98-10.356a1.338 1.338 0 1 1 0-2.677 1.338 1.338 0 1 1 0 2.677Z"/><path d="M13.993 17.479a3.504 3.504 0 1 0 0-7.007 3.504 3.504 0 0 0 0 7.007Z"/></g></symbol><symbol xmlns="http://www.w3.org/2000/svg" id="youtube-icon" fill="none" viewBox="0 0 28 28"><path fill="#121417" fill-rule="evenodd" d="M21.21 5.25c-1.19-.07-3.64-.14-7.35-.14h-.49c-3.57 0-5.95.07-7.14.21-1.61.14-2.73.56-3.36 1.12-.56.49-.98 1.4-1.12 2.59-.07.77-.14 2.38-.14 4.83v.35c0 2.31.07 3.92.21 4.69.21 1.12.56 1.96 1.26 2.45.7.56 1.89.91 3.57 1.05 1.19.07 3.64.14 7.35.14h.49c3.57 0 5.95-.07 7.14-.21 1.61-.14 2.73-.56 3.36-1.12.56-.49.98-1.4 1.12-2.59.07-.77.14-2.38.14-4.83v-.35c0-2.31-.07-3.92-.21-4.69-.21-1.12-.56-1.96-1.26-2.45-.7-.56-1.89-.91-3.57-1.05Zm-2.73 8.61-7.7 4.62V9.24l7.7 4.62Z" clip-rule="evenodd" opacity=".8"/></symbol><symbol xmlns="http://www.w3.org/2000/svg" id="check-icon" fill="none" viewBox="0 0 28 28"><path d="M20.6667 9L11.5 18.1667L7.33334 14" stroke-width="2" stroke-linecap="round" stroke-linejoin="round"></path></symbol><symbol xmlns="http://www.w3.org/2000/svg" id="arrow-down-icon" fill="none" viewBox="0 0 24 24"><path fill="#fff" d="M12.71 13.4a1 1 0 0 1-1.42 0L6.71 8.81a1 1 0 1 0-1.42 1.41l4.59 4.59a3 3 0 0 0 4.24 0l4.59-4.59a1 1 0 0 0-1.42-1.41l-4.58 4.59Z"/></symbol></svg>